<svg width="21" height="29" viewBox="0 0 21 29" fill="none" xmlns="http://www.w3.org/2000/svg">
    <path
        d="M12.8787 6.18942C12.7792 4.86037 12.2098 3.65205 11.8413 2.39254C11.4531 1.06526 12.1618 0.147459 13.6104 0.094862C14.2823 0.0705049 14.9648 0.597182 15.2546 1.33142C16.0431 3.32799 16.6064 5.37893 16.9988 7.47328C17.0321 7.65013 17.1164 7.81851 17.2504 8.19905C17.354 7.53188 17.393 7.07827 17.4997 6.63914C17.7203 5.72981 18.5443 5.19643 19.447 5.34257C20.3993 5.49683 21.0837 6.27661 20.9917 7.17605C20.5184 11.8018 19.5851 16.3389 17.9215 20.7288C17.4183 22.0568 16.931 23.388 16.2436 24.6528C14.0186 28.7447 8.42191 30.1574 4.16791 27.9879C2.40032 27.0863 1.02356 25.722 0.261973 23.9263C-0.0217784 23.2577 -0.134144 22.5376 0.417091 21.9131C0.936167 21.3254 1.61377 21.1916 2.3973 21.3748C2.98939 21.5135 3.21904 21.9527 3.4294 22.396C3.80471 23.186 4.31319 23.8546 4.99798 24.4586C6.57147 25.8459 9.15664 26.1347 11.1115 25.129C12.8655 24.2267 14.1726 22.1189 13.882 20.2265C13.2839 16.3269 8.97542 14.5202 5.47922 16.6146C4.53035 17.1829 3.96436 18.0075 3.54895 18.9327C3.12257 19.8827 2.10863 20.4295 1.20705 20.1185C0.196899 19.7701 -0.277911 18.812 0.167768 17.7837C1.37882 14.9901 3.54668 13.2258 6.73907 12.5988C8.15481 12.321 9.54292 12.44 10.9265 12.7672C11.1478 12.8195 11.3945 12.9543 11.5901 12.7619C11.7906 12.5646 11.6162 12.3412 11.5413 12.1456C10.2587 8.80621 8.75522 5.57237 6.40652 2.73919C5.87004 2.09214 5.94116 1.07514 6.52758 0.515992C7.18097 -0.107407 8.08481 -0.192128 8.85889 0.405855C9.68782 1.04655 10.2928 1.88316 10.8259 2.75225C11.5239 3.89068 12.1958 5.04287 12.8791 6.18906L12.8787 6.18942Z"
        fill="#46A249" />
</svg>
    