<svg width="77" height="31" viewBox="0 0 77 31" fill="none" xmlns="http://www.w3.org/2000/svg">
    <path
        d="M24.8441 5.89966C24.8035 4.69612 24.7437 3.47993 24.6626 2.24899C24.6584 2.15204 24.6498 2.05297 24.6434 1.95391C24.6456 1.94969 24.6456 1.94758 24.6434 1.94337C24.5196 1.00962 23.7895 0.261364 22.8545 0.105389C22.7307 0.0800954 22.6047 0.0695565 22.4767 0.0695565C22.3422 0.0695565 22.2119 0.0822031 22.0839 0.107496C21.1595 0.269795 20.4401 1.00752 20.3142 1.93072C20.3078 1.95391 20.3056 1.9792 20.3035 2.00238C20.295 2.06983 20.2907 2.14571 20.2907 2.21738L20.3291 2.61575C20.3291 2.61575 20.3312 2.6305 20.3312 2.63893C20.4892 4.31672 20.6045 6.03455 20.6792 7.784C20.7539 9.5461 20.6771 11.2913 20.4487 13.0218C20.216 14.7502 19.5307 16.0001 18.3886 16.7715C17.2444 17.5388 15.5003 18.0868 13.1521 18.4114C11.1241 18.6981 9.08331 18.6664 7.02542 18.3144C5.70402 18.0889 4.45947 17.7222 3.29604 17.2142C3.25761 17.1973 3.21705 17.1805 3.17863 17.1615C3.02279 17.094 2.85628 17.0456 2.68337 17.0161C2.55315 16.9908 2.42293 16.9802 2.2863 16.9802C2.14968 16.9802 2.00879 16.9929 1.87643 17.0182C1.27657 17.1235 0.762102 17.4608 0.424813 17.9308L0.224147 18.2638C0.123815 18.4683 0.0555032 18.6917 0.0234821 18.9278C0.0192126 18.951 0.0170779 18.9763 0.0149432 19.0016C0.00426948 19.0775 0 19.1575 0 19.2376C0 19.3072 0.00426948 19.3746 0.00853895 19.44C0.0128084 19.4674 0.0170779 19.4948 0.0192126 19.5201C0.106737 20.2093 0.508068 20.8016 1.07804 21.1536C1.10366 21.1705 1.13355 21.1852 1.16343 21.1979C1.30646 21.2632 1.45162 21.3286 1.59892 21.3918C2.60652 21.8197 3.64827 22.1611 4.72631 22.4141C6.72016 22.882 8.73321 23.0907 10.7698 23.0401C12.3986 23.0106 14.0359 22.8145 15.6839 22.4499C17.3319 22.0852 18.8476 21.5098 20.2309 20.7257C20.7582 20.4264 21.247 20.0892 21.6975 19.7182C22.4318 19.1154 23.0616 18.4114 23.5931 17.6125C23.845 17.2205 24.0585 16.7758 24.24 16.2741C24.7352 14.8977 24.97 13.1125 24.9423 10.914C24.9423 9.5735 24.9081 7.90204 24.8441 5.89966ZM14.7959 10.678C14.7382 10.6253 14.6806 10.5705 14.6251 10.5157C14.2665 10.2248 13.8907 10.0182 13.4958 9.89388C13.2567 9.80536 13.0283 9.69997 12.8084 9.58193C12.5096 9.38591 12.4391 9.15195 12.5992 8.88848C12.8255 8.65451 13.1137 8.56599 13.4617 8.62711C13.4659 8.62711 13.4702 8.62922 13.4745 8.62922C13.5535 8.64398 13.6346 8.65873 13.7136 8.6777C13.7627 8.68613 13.8139 8.68824 13.8651 8.68824C14.0573 8.68824 14.2408 8.64819 14.4052 8.57442C14.5931 8.49011 14.7574 8.36153 14.8855 8.20345C14.8877 8.20345 14.8877 8.20134 14.8877 8.20134C14.924 8.15708 14.9581 8.11282 14.988 8.06223C15.0051 8.03061 15.0222 8.00111 15.0371 7.96738C15.0392 7.96527 15.0392 7.96317 15.0414 7.96106C15.1011 7.84302 15.1417 7.71023 15.1609 7.57323C15.163 7.54161 15.1694 7.50999 15.1716 7.47838C15.1716 7.45308 15.1737 7.42568 15.1737 7.40039C15.1737 7.36456 15.1716 7.33083 15.1694 7.29289C15.1374 6.91982 14.9453 6.59101 14.6614 6.37812C14.6592 6.37601 14.6571 6.37601 14.6571 6.37391C14.6037 6.33386 14.5482 6.29802 14.4906 6.26641C14.4266 6.24533 14.3668 6.22215 14.3049 6.19896C14.2494 6.18842 14.196 6.17577 14.1405 6.16524C14.0252 6.14205 13.9121 6.12519 13.7989 6.11254C13.3933 6.05985 12.9942 6.06617 12.5928 6.12308C12.5395 6.13151 12.4861 6.14416 12.4306 6.1547C11.4422 6.39077 10.7249 6.943 10.2766 7.80719C9.81553 8.69456 9.8326 9.61144 10.3215 10.5599C10.599 11.0616 10.9704 11.4431 11.4294 11.6981C11.519 11.7572 11.6087 11.812 11.6984 11.8604C11.4892 11.8499 11.2736 11.8162 11.0537 11.7572C10.7932 11.6918 10.5285 11.6054 10.2574 11.4979C10.1848 11.4684 10.1101 11.4368 10.0333 11.4052C10.0311 11.4052 10.029 11.403 10.0269 11.403C9.97777 11.3883 9.92653 11.3756 9.8753 11.3651C9.84541 11.3588 9.81553 11.3567 9.7835 11.3525C9.7707 11.3504 9.75575 11.3504 9.73867 11.3504C9.71092 11.3461 9.68104 11.3461 9.65329 11.3461C9.63194 11.3461 9.60846 11.3461 9.58711 11.3482C9.53161 11.3504 9.4761 11.3567 9.42487 11.3672C9.10679 11.422 8.83141 11.5949 8.64569 11.8351C8.63288 11.8478 8.62221 11.8625 8.6094 11.8794C8.59446 11.8984 8.57951 11.9216 8.56457 11.9447C8.54322 11.9827 8.51974 12.0227 8.49839 12.0649C8.44075 12.1787 8.40446 12.3052 8.38525 12.4338C8.38312 12.4485 8.38098 12.4612 8.38098 12.478C8.37671 12.5223 8.37458 12.5644 8.37458 12.6108C8.37458 12.6487 8.37671 12.6867 8.37885 12.7225C8.37885 12.7352 8.38098 12.752 8.38312 12.7668C8.43435 13.1609 8.66704 13.5003 9.00006 13.6963C9.02781 13.7132 9.05769 13.7279 9.08758 13.7406C9.15589 13.7701 9.2242 13.7975 9.29465 13.8228C9.81766 14.0272 10.3684 14.1811 10.9427 14.2865C12.0762 14.493 13.1607 14.316 14.2003 13.7532C14.8087 13.3991 15.1737 12.9143 15.2933 12.3031C15.4107 11.715 15.2442 11.1733 14.7959 10.678ZM27.2777 17.8655C27.22 17.8339 27.1496 17.817 27.077 17.817C27.013 17.8191 26.9511 17.8191 26.887 17.8191C26.1676 17.8191 25.6019 17.6905 25.1878 17.4292C24.7736 17.1678 24.4769 16.82 24.2976 16.3858C24.2805 16.3458 24.2613 16.3078 24.24 16.2741C23.9496 15.7851 23.2409 15.7092 22.8545 16.1603L21.6462 17.5683C21.2577 18.0236 21.1617 18.6622 21.4178 19.2018C21.5032 19.381 21.5971 19.5538 21.6975 19.7182C22.7051 21.337 24.4983 22.1843 27.0813 22.2539C27.1517 22.2539 27.2179 22.237 27.2777 22.2075C27.393 22.1422 27.4719 22.022 27.4719 21.8829V18.188C27.4719 18.0468 27.393 17.9266 27.2777 17.8655Z"
        fill="#46A249" />
    <path
        d="M34.745 4.2577C34.7236 3.80875 34.6831 3.07102 34.6276 2.04454C34.6276 2.00871 34.6233 1.97498 34.6212 1.93915C34.5358 0.992761 33.8143 0.225532 32.8792 0.0695565C32.7597 0.046371 32.638 0.0358321 32.5121 0.0358321C32.3861 0.0358321 32.2559 0.0484788 32.1321 0.0716643C31.2376 0.229747 30.5417 0.944282 30.4179 1.83798C30.4136 1.86116 30.4115 1.88435 30.4093 1.90753C30.4008 1.97709 30.3965 2.05297 30.3965 2.12674V2.13728C30.4008 2.19419 30.4029 2.25321 30.4051 2.31223C30.4051 2.31644 30.4051 2.32066 30.4072 2.32487C30.4328 2.80755 30.4542 3.3071 30.4755 3.82139C30.531 5.16826 30.5588 6.62051 30.5588 8.17816C30.5588 8.56177 30.5652 9.09715 30.5801 9.78217C30.5951 10.4672 30.5951 11.1944 30.5801 11.9637C30.5652 12.7331 30.5225 13.4539 30.452 14.1305C30.3837 14.805 30.2642 15.3446 30.0934 15.7493C29.7732 16.4301 29.3932 16.917 28.9556 17.2057C28.5158 17.4987 27.9565 17.7011 27.2777 17.8191V22.256L28.0547 22.1696C29.2843 22.0895 30.4115 21.7438 31.434 21.1325C32.4566 20.5234 33.2229 19.6339 33.7331 18.4725C34.222 17.2205 34.5358 15.9284 34.6767 14.5963C34.8176 13.2642 34.888 11.9426 34.888 10.6337V9.64306C34.8261 6.78281 34.7792 4.9891 34.745 4.2577Z"
        fill="#46A249" />
    <path
        d="M45.5959 17.817C45.551 17.8086 45.5062 17.8001 45.4614 17.7917C44.8423 17.6758 44.3321 17.4798 43.9286 17.2057C43.506 16.9233 43.1345 16.4596 42.8122 15.8125C42.7994 15.7851 42.7844 15.7556 42.7737 15.7261C42.5581 15.176 42.4215 14.4151 42.3617 13.4434C42.302 12.4569 42.2785 11.4621 42.2934 10.4546C42.3084 9.44914 42.3169 8.69035 42.3169 8.17816C42.3169 6.62051 42.3447 5.16826 42.398 3.82139C42.4194 3.32817 42.4343 2.85814 42.4493 2.41129C42.4535 2.25532 42.4578 2.10356 42.4621 1.95391C42.3831 0.98433 41.6445 0.196023 40.6881 0.0337244C40.5664 0.0105389 40.4426 0 40.3145 0C40.1864 0 40.0541 0.0126466 39.9281 0.0358321C39.0187 0.198131 38.31 0.923204 38.1841 1.83376C38.1798 1.85695 38.1777 1.88013 38.1755 1.90332C38.1755 2.04665 38.1734 2.18365 38.1712 2.31644C38.1648 3.1996 38.1499 3.84669 38.1307 4.2577C38.0944 4.9891 38.0474 6.78281 37.9877 9.64306V10.6337C37.9877 11.9426 38.0581 13.2642 38.1969 14.5963C38.3356 15.9284 38.6516 17.2205 39.1426 18.4725C39.6485 19.6339 40.4149 20.5234 41.4417 21.1325C42.4642 21.7438 43.5914 22.0895 44.8167 22.1696L45.598 22.256V17.8191L45.5959 17.817Z"
        fill="#46A249" />
    <path
        d="M54.233 11.2513C54.1903 11.1248 54.1455 10.9984 54.0985 10.874C53.8872 10.4272 53.5264 10.0646 53.0781 9.84962C53.0418 9.83276 53.0034 9.81801 52.9671 9.79904C52.8177 9.7358 52.6576 9.68943 52.4932 9.65992C52.3673 9.63674 52.2434 9.6262 52.1132 9.6262C51.983 9.6262 51.8464 9.63884 51.7204 9.66203C51.1462 9.7632 50.6552 10.0857 50.3329 10.5346C50.2581 10.6337 50.1962 10.7412 50.1407 10.8529C50.0447 11.0489 49.9785 11.2639 49.9486 11.4895C49.9443 11.5105 49.9422 11.5358 49.9401 11.559C49.9294 11.6328 49.9251 11.7087 49.9251 11.7846C49.9251 11.852 49.9294 11.9173 49.9337 11.9785C49.9379 12.0059 49.9422 12.0312 49.9443 12.0565C49.9529 12.1197 49.9635 12.1829 49.9785 12.2441C50.019 12.3684 50.0575 12.4886 50.0938 12.6066C50.2902 13.2684 50.3884 13.867 50.3884 14.4024C50.3884 16.5882 48.7467 17.7158 45.4614 17.7917L45.598 22.256C49.2719 21.9229 51.7631 20.6351 53.4005 18.3966C54.3398 17.0456 54.7859 15.6081 54.7411 14.0799C54.7133 13.1125 54.5447 12.1703 54.233 11.2513ZM50.1941 24.1424C49.7373 23.685 49.1716 23.4553 48.5034 23.4553C47.8352 23.4553 47.3101 23.685 46.8404 24.1424C46.3708 24.6019 46.136 25.1457 46.136 25.776C46.136 26.4062 46.3708 26.9521 46.8404 27.4116C47.3101 27.8711 47.863 28.0987 48.5034 28.0987C49.1438 28.0987 49.7245 27.8732 50.1877 27.42C50.6509 26.9647 50.8858 26.4188 50.8858 25.776C50.8858 25.1331 50.6552 24.6019 50.1941 24.1424Z"
        fill="#46A249" />
    <path
        d="M76.9936 26.0542C76.9317 25.2891 76.4599 24.6356 75.7917 24.3153C75.7555 24.2984 75.717 24.2836 75.6807 24.2647C75.5334 24.2014 75.3755 24.1551 75.2111 24.1277C75.0894 24.1024 74.9656 24.094 74.8354 24.094C74.7052 24.094 74.5728 24.1045 74.449 24.1298C73.9132 24.2225 73.4478 24.5134 73.1319 24.9202C73.0913 24.9834 73.0465 25.0446 72.9995 25.1057C72.6409 25.5652 72.1477 25.9425 71.518 26.2354C69.7547 26.9521 68.0362 26.9184 66.3583 26.1343C66.2943 26.1027 66.2302 26.071 66.1683 26.031C65.4191 25.5715 64.8982 24.9181 64.6078 24.0708C64.3197 23.2361 64.3261 22.4119 64.6313 21.592C64.6655 21.4993 64.706 21.4065 64.7509 21.3201C65.1522 20.5634 65.8311 19.8932 66.7938 19.3072C67.8078 18.6896 68.8026 18.1564 69.7803 17.7011L69.87 17.6568C70.8989 17.1467 71.9449 16.6662 73.0038 16.2151C73.2108 16.1202 73.3944 16.0233 73.5609 15.9221C74.1117 15.5891 74.4575 15.2244 74.6646 14.8661C74.6646 14.864 74.6689 14.8598 74.671 14.8556C74.7735 14.6469 74.8439 14.4193 74.8781 14.179C74.8823 14.1221 74.893 14.0694 74.8951 14.0146C74.8973 13.9682 74.8994 13.9239 74.8994 13.8755C74.8994 13.8143 74.8973 13.7553 74.893 13.6921C74.8396 13.0408 74.5045 12.4675 74.0071 12.0944C74.005 12.0923 74.0007 12.0902 73.9986 12.0881C73.7168 11.9173 73.3944 11.7972 73.0892 11.7108C72.9846 11.6813 72.88 11.656 72.7732 11.6349C72.342 11.5443 71.9001 11.5148 71.4582 11.5379C70.726 11.5759 70.013 11.5211 69.3171 11.3714C68.6959 11.2344 68.3479 10.8782 68.2668 10.3091C68.1985 9.92339 68.2582 9.51238 68.4482 9.08029C68.6382 8.64608 68.952 8.28566 69.3918 7.999C69.7803 7.784 70.2308 7.6744 70.741 7.6744C71.0996 7.6744 71.4668 7.70602 71.8425 7.77347C71.9023 7.78401 71.9642 7.79454 72.0261 7.8093H72.0282C72.1371 7.82616 72.2459 7.83459 72.3569 7.83459C72.675 7.83459 72.9782 7.76714 73.2493 7.64489C73.5609 7.50578 73.8342 7.29289 74.0455 7.03364C74.0477 7.03364 74.0477 7.03153 74.0477 7.03153C74.1074 6.95776 74.1629 6.88188 74.212 6.79967C74.2419 6.74909 74.2697 6.6985 74.2953 6.6437C74.2974 6.6437 74.2996 6.63738 74.3017 6.63316C74.3999 6.43714 74.4661 6.22004 74.4981 5.9924C74.5024 5.9397 74.513 5.88912 74.5152 5.83642C74.5173 5.79216 74.5194 5.75 74.5194 5.70574C74.5194 5.64672 74.5173 5.59192 74.513 5.5308C74.4618 4.91322 74.1437 4.36941 73.6741 4.01741C73.6719 4.01531 73.6677 4.0132 73.6655 4.01109C73.5567 3.92889 73.4393 3.85722 73.3133 3.7961C73.277 3.77924 73.2386 3.76448 73.2023 3.74551C73.134 3.716 73.0635 3.69071 72.991 3.66963C72.9056 3.65066 72.8202 3.63169 72.7327 3.61483C72.6814 3.60429 72.6323 3.59586 72.5811 3.58743C71.7208 3.42724 70.8477 3.38508 69.9618 3.46096C69.0225 3.53895 68.1024 3.83404 67.2058 4.34623C66.0381 5.04601 65.1629 5.99029 64.5822 7.17907C64.0059 8.36786 63.8095 9.62198 63.9994 10.9436C64.151 11.8457 64.4606 12.634 64.9281 13.3064C65.4788 14.0926 65.3038 15.1675 64.4968 15.6987C64.0229 16.0106 63.5576 16.3479 63.1007 16.7104C62.0718 17.5303 61.2798 18.5463 60.7184 19.7583C59.9306 21.689 59.8623 23.5944 60.5177 25.4661C61.1709 27.3399 62.4027 28.7943 64.2087 29.8313C64.6676 30.0674 65.1415 30.2676 65.6325 30.4362C68.2476 31.2836 70.8093 31.1761 73.3154 30.1116C74.6795 29.4667 75.7512 28.6151 76.5261 27.5591C76.5282 27.5591 76.5282 27.557 76.5282 27.557C76.5859 27.4811 76.6414 27.4032 76.6926 27.3252C76.8399 27.0828 76.9402 26.8088 76.9808 26.5158C76.9851 26.4631 76.9936 26.4125 76.9957 26.3598C76.9979 26.3155 77 26.2734 77 26.227C77 26.1701 76.9979 26.1132 76.9936 26.0542Z"
        fill="#46A249" />
    <path
        d="M9.25836 29.6901C9.21353 29.4983 9.16016 29.3065 9.10039 29.1168C9.00433 28.7837 8.91893 28.6025 8.89972 28.5624C8.89759 28.5603 8.89759 28.5582 8.89759 28.5561H8.89545C8.85276 28.4465 8.81006 28.339 8.76523 28.2336C8.72041 28.1261 8.67131 28.0207 8.62007 27.9132C8.48345 27.6118 8.33402 27.3167 8.16964 27.0238C8.00527 26.7329 7.80247 26.4694 7.55697 26.2376C7.5527 26.2376 7.55057 26.2376 7.55057 26.2354C7.55057 26.2333 7.54843 26.2312 7.54416 26.2312C7.51001 26.1996 7.47158 26.1764 7.42462 26.1659C7.37766 26.1532 7.32856 26.1575 7.27519 26.1764C7.17272 26.1996 7.10654 26.2544 7.07879 26.3429C6.75004 26.9542 6.4768 27.5802 6.25905 28.2231C6.04131 28.8638 5.85345 29.5215 5.69975 30.1938C5.68054 30.295 5.69121 30.3793 5.73177 30.4426C5.7702 30.5079 5.82357 30.5501 5.88547 30.569C5.89188 30.5711 5.89615 30.5711 5.90255 30.5732C5.93457 30.5796 5.96873 30.5817 6.00288 30.5732C6.03064 30.5711 6.05839 30.5606 6.08614 30.5479C6.15658 30.5163 6.20995 30.451 6.24838 30.354C6.34231 29.9325 6.44691 29.5236 6.56432 29.1294C6.57499 29.1294 6.58567 29.1315 6.59634 29.1336C6.60915 29.1357 6.61982 29.1379 6.62836 29.1379L8.49412 29.1231C8.56457 29.3318 8.62434 29.5404 8.67771 29.7512C8.72894 29.962 8.7695 30.177 8.79726 30.3941C8.83782 30.4742 8.89118 30.529 8.95096 30.5627C8.9595 30.5669 8.9659 30.5711 8.97444 30.5732C9.02781 30.5964 9.08117 30.6028 9.13454 30.5922C9.15589 30.588 9.1751 30.5838 9.19218 30.5732C9.22847 30.5564 9.26263 30.529 9.29038 30.4931C9.33094 30.4362 9.35442 30.3646 9.36083 30.276C9.33734 30.0779 9.30319 29.8819 9.25836 29.6901ZM6.74791 28.5666C6.84184 28.2884 6.9443 28.0123 7.05531 27.7404C7.16418 27.4664 7.28586 27.1987 7.41608 26.9331C7.51641 27.0596 7.6018 27.1903 7.67652 27.3294C7.75337 27.4685 7.82808 27.6055 7.9028 27.7404C7.96898 27.8732 8.03302 28.0081 8.09706 28.143C8.15897 28.2779 8.22088 28.4149 8.28278 28.554L6.74791 28.5666Z"
        fill="#46A249" />
    <path
        d="M12.437 28.925C12.3943 28.8723 12.3281 28.8343 12.2385 28.8111H11.8841C11.7026 28.8111 11.5084 28.8111 11.2992 28.8111C11.09 28.8133 10.8957 28.8154 10.7142 28.8154H10.3599C10.251 28.8154 10.1699 28.847 10.1165 28.9081C10.0632 28.9713 10.0354 29.0346 10.0354 29.0999C10.0354 29.1653 10.061 29.2243 10.1101 29.2812C10.1592 29.336 10.2339 29.3718 10.3385 29.3845C10.6523 29.3845 10.9662 29.3845 11.2778 29.3824C11.5895 29.3802 11.9033 29.3781 12.2171 29.3781C12.311 29.355 12.3815 29.317 12.4284 29.2664C12.4754 29.2158 12.4989 29.1589 12.4989 29.0936C12.4989 29.0325 12.4775 28.9756 12.437 28.9229V28.925Z"
        fill="#46A249" />
    <path
        d="M15.6604 28.535C15.6327 28.3748 15.5836 28.2273 15.5131 28.0882C15.4427 27.9491 15.3381 27.8395 15.2036 27.7615C15.099 27.7003 14.9944 27.6498 14.8855 27.6076C14.7788 27.5655 14.6635 27.5549 14.5418 27.5739C14.418 27.5865 14.3091 27.6076 14.2131 27.6329C14.117 27.6582 14.0146 27.7003 13.9078 27.7615C13.7904 27.8163 13.6794 27.8922 13.5769 27.9891V26.3366C13.5492 26.2481 13.5065 26.1828 13.451 26.1406C13.3933 26.0984 13.3357 26.0795 13.2781 26.0816C13.2183 26.0837 13.1628 26.109 13.1094 26.1554C13.0539 26.2017 13.0176 26.2692 12.9984 26.3556V29.9746C13.0134 30.0063 13.1222 30.2718 13.3933 30.3814C13.4873 30.4362 13.5833 30.4763 13.6815 30.4995C13.7819 30.5227 13.8843 30.5395 13.9911 30.5479C14.1234 30.5564 14.2622 30.5522 14.4116 30.5311C14.5589 30.51 14.7019 30.4721 14.8407 30.4194C14.9795 30.3667 15.1033 30.295 15.2164 30.2044C15.3296 30.1137 15.4192 30.0041 15.4833 29.8735C15.5217 29.8081 15.558 29.7428 15.59 29.6753C15.622 29.6079 15.6434 29.5383 15.654 29.4646C15.6775 29.3339 15.6903 29.1863 15.6967 29.0219C15.701 28.8575 15.6882 28.6952 15.6604 28.535ZM15.0926 29.2664C15.0734 29.3613 15.0392 29.4646 14.9923 29.5742C14.8236 29.7702 14.6272 29.8967 14.4073 29.9578C14.1875 30.0168 13.9548 30.002 13.7114 29.9093C13.7008 29.8988 13.6922 29.8924 13.6815 29.8882C13.673 29.884 13.6645 29.8756 13.6538 29.8671C13.6154 29.8482 13.5897 29.8334 13.5769 29.825V28.8512L13.6324 28.7964C13.7605 28.6193 13.895 28.476 14.0423 28.3622C14.1875 28.2484 14.3711 28.1725 14.5973 28.1367C14.6208 28.1409 14.6464 28.1451 14.6742 28.1493C14.7019 28.1556 14.7297 28.1598 14.7532 28.1641C14.7767 28.1725 14.798 28.1851 14.8194 28.1978C14.8407 28.2125 14.862 28.2231 14.8855 28.2336C14.909 28.2568 14.9304 28.28 14.9453 28.3053C14.9624 28.3327 14.9816 28.3559 15.0051 28.3791C15.0478 28.4908 15.0777 28.594 15.0969 28.691C15.1161 28.7901 15.1246 28.8849 15.1246 28.9798C15.1246 29.0746 15.1139 29.1716 15.0926 29.2664Z"
        fill="#46A249" />
    <path
        d="M19.0461 30.2149C19.0461 30.2149 19.0525 30.2128 19.0525 30.2065C19.0525 30.1938 19.0397 30.1643 19.012 30.118C18.9821 30.0716 18.9522 30.0189 18.9159 29.9641C18.8818 29.9093 18.8476 29.8524 18.8177 29.7934C18.7878 29.7365 18.7686 29.6859 18.7643 29.6437C18.7174 29.3297 18.696 29.0114 18.7024 28.691C18.7067 28.3727 18.7088 28.0545 18.7088 27.7404C18.6747 27.6477 18.6277 27.5802 18.5637 27.538C18.5018 27.4959 18.4356 27.4811 18.3716 27.4896C18.3011 27.4622 18.2136 27.4474 18.1133 27.4474C18.0129 27.4474 17.9126 27.458 17.8101 27.479C17.7098 27.5001 17.6159 27.5254 17.5283 27.5549C17.4429 27.5865 17.3789 27.6139 17.3362 27.6434C17.2743 27.6793 17.2145 27.7193 17.1569 27.7615C17.0971 27.8015 17.0373 27.8437 16.9776 27.8858C16.8922 27.947 16.8175 28.0165 16.7513 28.0987C16.6851 28.1788 16.6275 28.2652 16.5762 28.358C16.5378 28.4233 16.4994 28.4865 16.4631 28.5456C16.4247 28.6067 16.3948 28.6699 16.3713 28.7332C16.3158 28.8765 16.2752 29.0282 16.2518 29.1863C16.2283 29.3423 16.2261 29.4983 16.2475 29.6479C16.2688 29.7976 16.3158 29.9409 16.3884 30.0758C16.461 30.2107 16.5656 30.3245 16.7022 30.4236C16.8025 30.4953 16.9071 30.5437 17.0139 30.5732C17.0822 30.5922 17.1526 30.6006 17.2231 30.6028C17.4067 30.6091 17.5924 30.6028 17.7781 30.5964C17.8251 30.5943 17.872 30.588 17.9169 30.5732C17.9788 30.5564 18.0407 30.5269 18.1026 30.4889C18.2115 30.4215 18.3118 30.3477 18.4057 30.2697C18.4335 30.3203 18.4676 30.3709 18.5039 30.4194C18.5423 30.4679 18.5808 30.5142 18.6235 30.5543C18.6384 30.5627 18.6533 30.569 18.6683 30.5732C18.7259 30.5964 18.7814 30.6028 18.8327 30.5964C18.8625 30.5922 18.8924 30.5838 18.918 30.5732C18.9437 30.5627 18.965 30.548 18.9864 30.5311C19.0269 30.4953 19.0525 30.451 19.0675 30.3941C19.0824 30.3393 19.0739 30.2803 19.0461 30.2149ZM18.1794 29.7133C18.1794 29.7133 18.1688 29.7238 18.1602 29.728C18.094 29.7828 18.0257 29.8334 17.9596 29.8798C17.8912 29.9262 17.8208 29.9725 17.7503 30.0189C17.6756 30.0421 17.6009 30.0526 17.5262 30.0484C17.4515 30.0421 17.3725 30.04 17.2935 30.04C17.2508 30.0273 17.2081 30.0126 17.1676 29.9978C17.1249 29.9852 17.0822 29.9683 17.0395 29.9493C17.0117 29.9262 16.984 29.9009 16.9584 29.8735C16.9327 29.8461 16.9093 29.8208 16.8858 29.7976C16.8751 29.7596 16.8644 29.7238 16.8495 29.6859C16.8367 29.6479 16.8239 29.6121 16.8153 29.5742C16.8153 29.4308 16.8303 29.2896 16.8644 29.1484C16.8965 29.0051 16.9456 28.8723 17.0075 28.7437C17.0715 28.6172 17.1526 28.5013 17.2508 28.3959C17.349 28.2926 17.4686 28.2083 17.6095 28.143C17.6287 28.1346 17.6586 28.1219 17.6991 28.1072C17.7375 28.0945 17.7824 28.0797 17.8315 28.0629C17.8806 28.046 17.9318 28.0334 17.983 28.0249C18.0343 28.0165 18.0812 28.0102 18.1239 28.0102C18.1197 28.261 18.1154 28.535 18.1133 28.8343C18.1111 29.1336 18.141 29.4224 18.2008 29.7006C18.1922 29.7048 18.1858 29.7091 18.1794 29.7133Z"
        fill="#46A249" />
    <path
        d="M20.2074 26.1764C20.1519 26.1343 20.0943 26.1153 20.0366 26.1174C19.9769 26.1195 19.9214 26.1427 19.8659 26.1891C19.8125 26.2354 19.7762 26.3029 19.757 26.3914V30.2486C19.7677 30.3098 19.7783 30.3561 19.7933 30.3878C19.8061 30.4215 19.836 30.4552 19.8765 30.4931C19.9214 30.5205 19.9662 30.5458 20.0068 30.5732C20.0089 30.5732 20.0089 30.5753 20.011 30.5753C20.026 30.5838 20.0409 30.5943 20.0537 30.6049C20.0964 30.6049 20.1348 30.5943 20.169 30.5796C20.1733 30.5775 20.1775 30.5754 20.1818 30.5732C20.2736 30.5332 20.3355 30.4531 20.3355 30.3604V26.3703C20.3056 26.2818 20.2651 26.2186 20.2074 26.1764Z"
        fill="#46A249" />
    <path
        d="M23.9048 30.2149C23.9048 30.2149 23.9112 30.2128 23.9112 30.2065C23.9112 30.1938 23.8963 30.1643 23.8685 30.118C23.8408 30.0716 23.8087 30.0189 23.7724 29.9641C23.7383 29.9093 23.7063 29.8524 23.6742 29.7934C23.6444 29.7365 23.6273 29.6859 23.623 29.6437C23.576 29.3297 23.5547 29.0114 23.559 28.691C23.5632 28.3727 23.5654 28.0545 23.5654 27.7404C23.5333 27.6477 23.4843 27.5802 23.4223 27.538C23.3583 27.4959 23.2943 27.4811 23.2281 27.4896C23.1576 27.4622 23.0722 27.4474 22.9719 27.4474C22.8716 27.4474 22.7691 27.458 22.6688 27.479C22.5663 27.5001 22.4745 27.5254 22.387 27.5549C22.2995 27.5865 22.2354 27.6139 22.1927 27.6434C22.133 27.6793 22.0732 27.7193 22.0134 27.7615C21.9558 27.8015 21.896 27.8437 21.8341 27.8858C21.7487 27.947 21.674 28.0165 21.6078 28.0987C21.5438 28.1788 21.484 28.2652 21.4328 28.358C21.3943 28.4233 21.3581 28.4865 21.3196 28.5456C21.2833 28.6067 21.2513 28.6699 21.2278 28.7332C21.1723 28.8765 21.1318 29.0282 21.1083 29.1863C21.0848 29.3423 21.0848 29.4983 21.1062 29.6479C21.1275 29.7976 21.1745 29.9409 21.247 30.0758C21.3196 30.2107 21.4242 30.3245 21.5587 30.4236C21.6591 30.4953 21.7637 30.5437 21.8725 30.5732C21.9408 30.5922 22.0091 30.6006 22.0796 30.6028C22.2632 30.6091 22.4489 30.6028 22.6368 30.5964C22.6816 30.5943 22.7286 30.588 22.7755 30.5732C22.8374 30.5564 22.8993 30.5269 22.9612 30.4889C23.068 30.4215 23.1683 30.3477 23.2622 30.2697C23.2921 30.3203 23.3241 30.3709 23.3626 30.4194C23.3989 30.4679 23.4394 30.5142 23.4821 30.5543C23.4971 30.5627 23.512 30.569 23.5269 30.5732C23.5846 30.5964 23.638 30.6028 23.6892 30.5964C23.7212 30.5922 23.7511 30.5838 23.7767 30.5732C23.8023 30.5627 23.8237 30.548 23.8429 30.5311C23.8834 30.4953 23.9112 30.451 23.924 30.3941C23.939 30.3393 23.9325 30.2803 23.9048 30.2149ZM23.0381 29.7133C23.0381 29.7133 23.0253 29.7238 23.0167 29.728C22.9506 29.7828 22.8844 29.8334 22.8161 29.8798C22.7478 29.9262 22.6795 29.9725 22.609 30.0189C22.5343 30.0421 22.4574 30.0526 22.3827 30.0484C22.308 30.0421 22.2312 30.04 22.15 30.04C22.1095 30.0273 22.0668 30.0126 22.0241 29.9978C21.9814 29.9852 21.9387 29.9683 21.8981 29.9493C21.8683 29.9262 21.8426 29.9009 21.817 29.8735C21.7914 29.8461 21.7658 29.8208 21.7423 29.7976C21.7338 29.7596 21.721 29.7238 21.7082 29.6859C21.6932 29.6479 21.6825 29.6121 21.6719 29.5742C21.6719 29.4308 21.6889 29.2896 21.721 29.1484C21.7551 29.0051 21.8021 28.8723 21.8661 28.7437C21.9302 28.6172 22.0091 28.5013 22.1095 28.3959C22.2077 28.2926 22.3272 28.2083 22.4681 28.143C22.4873 28.1346 22.5151 28.1219 22.5556 28.1072C22.5962 28.0945 22.641 28.0797 22.6901 28.0629C22.7392 28.046 22.7883 28.0334 22.8417 28.0249C22.8929 28.0165 22.9399 28.0102 22.9805 28.0102C22.9762 28.261 22.9741 28.535 22.9719 28.8343C22.9676 29.1336 22.9975 29.4224 23.0594 29.7006C23.0488 29.7048 23.0424 29.7091 23.0381 29.7133Z"
        fill="#46A249" />
    <path
        d="M27.156 30.0758C26.9169 29.8102 26.6906 29.5615 26.4772 29.3276C26.2637 29.0936 26.0374 28.8449 25.7983 28.5814C25.967 28.4613 26.1249 28.3242 26.2765 28.1746C26.4259 28.0228 26.5903 27.8458 26.7696 27.6434C26.8337 27.5633 26.8657 27.4854 26.8593 27.4095C26.855 27.3336 26.8294 27.2725 26.7824 27.2261C26.7355 27.1797 26.6735 27.1544 26.5967 27.1481C26.5198 27.1439 26.4409 27.1755 26.3597 27.2387C26.2487 27.3652 26.1441 27.479 26.0481 27.5844C25.952 27.6877 25.8559 27.7847 25.762 27.8711C25.6681 27.9596 25.5742 28.0418 25.4781 28.1156C25.3799 28.1894 25.271 28.261 25.1493 28.3306V26.2945C25.1216 26.2059 25.0789 26.1406 25.0234 26.0984C24.9658 26.0584 24.9103 26.0373 24.8505 26.0394C24.7928 26.0436 24.7352 26.0668 24.6818 26.1132C24.6285 26.1596 24.59 26.227 24.573 26.3155V30.276C24.5858 30.3793 24.6221 30.4531 24.6818 30.5037C24.7373 30.5501 24.7993 30.5732 24.8633 30.5732H24.8718C24.9401 30.569 25.0021 30.5416 25.0576 30.4889C25.1152 30.4362 25.1451 30.3582 25.1493 30.255V28.9777C25.1771 28.9629 25.2049 28.9503 25.2305 28.9355C25.2561 28.9207 25.2838 28.9081 25.3116 28.8933C25.5614 29.1631 25.794 29.4203 26.0161 29.6648C26.2359 29.9114 26.4708 30.1707 26.7205 30.4426C26.7952 30.5184 26.8699 30.5564 26.9489 30.5585C27.0258 30.5606 27.0898 30.5395 27.1389 30.4953C27.188 30.451 27.2179 30.392 27.2307 30.3161C27.2414 30.2381 27.2179 30.158 27.156 30.0758Z"
        fill="#46A249" />
</svg>
    